<svg id="visual" viewBox="0 0 960 300" width="960" height="300" xmlns="http://www.w3.org/2000/svg" xmlns:xlink="http://www.w3.org/1999/xlink" version="1.1"><rect x="0" y="0" width="960" height="300" fill="#d3ebff"></rect><path d="M0 150L22.8 145.2C45.7 140.3 91.3 130.7 137 126.8C182.7 123 228.3 125 274 130.8C319.7 136.7 365.3 146.3 411.2 150.2C457 154 503 152 548.8 155.5C594.7 159 640.3 168 686 164.2C731.7 160.3 777.3 143.7 823 137.8C868.7 132 914.3 137 937.2 139.5L960 142L960 301L937.2 301C914.3 301 868.7 301 823 301C777.3 301 731.7 301 686 301C640.3 301 594.7 301 548.8 301C503 301 457 301 411.2 301C365.3 301 319.7 301 274 301C228.3 301 182.7 301 137 301C91.3 301 45.7 301 22.8 301L0 301Z" fill="#4288dc"></path><path d="M0 157L22.8 153.5C45.7 150 91.3 143 137 149.3C182.7 155.7 228.3 175.3 274 175.8C319.7 176.3 365.3 157.7 411.2 152.3C457 147 503 155 548.8 161.8C594.7 168.7 640.3 174.3 686 176.3C731.7 178.3 777.3 176.7 823 172.3C868.7 168 914.3 161 937.2 157.5L960 154L960 301L937.2 301C914.3 301 868.7 301 823 301C777.3 301 731.7 301 686 301C640.3 301 594.7 301 548.8 301C503 301 457 301 411.2 301C365.3 301 319.7 301 274 301C228.3 301 182.7 301 137 301C91.3 301 45.7 301 22.8 301L0 301Z" fill="#659be5"></path><path d="M0 171L22.8 173.3C45.7 175.7 91.3 180.3 137 186.3C182.7 192.3 228.3 199.7 274 202.5C319.7 205.3 365.3 203.7 411.2 207.2C457 210.7 503 219.3 548.8 220C594.7 220.7 640.3 213.3 686 210C731.7 206.7 777.3 207.3 823 207C868.7 206.7 914.3 205.3 937.2 204.7L960 204L960 301L937.2 301C914.3 301 868.7 301 823 301C777.3 301 731.7 301 686 301C640.3 301 594.7 301 548.8 301C503 301 457 301 411.2 301C365.3 301 319.7 301 274 301C228.3 301 182.7 301 137 301C91.3 301 45.7 301 22.8 301L0 301Z" fill="#83afee"></path><path d="M0 209L22.8 214.2C45.7 219.3 91.3 229.7 137 230C182.7 230.3 228.3 220.7 274 219.8C319.7 219 365.3 227 411.2 230.3C457 233.7 503 232.3 548.8 229.3C594.7 226.3 640.3 221.7 686 219.3C731.7 217 777.3 217 823 218.2C868.7 219.3 914.3 221.7 937.2 222.8L960 224L960 301L937.2 301C914.3 301 868.7 301 823 301C777.3 301 731.7 301 686 301C640.3 301 594.7 301 548.8 301C503 301 457 301 411.2 301C365.3 301 319.7 301 274 301C228.3 301 182.7 301 137 301C91.3 301 45.7 301 22.8 301L0 301Z" fill="#a0c3f7"></path><path d="M0 247L22.8 247.5C45.7 248 91.3 249 137 253C182.7 257 228.3 264 274 266.3C319.7 268.7 365.3 266.3 411.2 261.2C457 256 503 248 548.8 248.8C594.7 249.7 640.3 259.3 686 259.7C731.7 260 777.3 251 823 250.8C868.7 250.7 914.3 259.3 937.2 263.7L960 268L960 301L937.2 301C914.3 301 868.7 301 823 301C777.3 301 731.7 301 686 301C640.3 301 594.7 301 548.8 301C503 301 457 301 411.2 301C365.3 301 319.7 301 274 301C228.3 301 182.7 301 137 301C91.3 301 45.7 301 22.8 301L0 301Z" fill="#bcd7ff"></path></svg>